<svg xmlns="http://www.w3.org/2000/svg" viewBox="0 0 64 64">
  <rect width="64" height="64" fill="none"/>
  <g fill="#000000">
    <!-- 耳（左右の角） -->
    <path d="M16 12 L20 6 L24 14 Z"/>
    <path d="M48 12 L44 6 L40 14 Z"/>
    <!-- 頭部 -->
    <path d="M16 18 C16 10, 24 6, 32 6 C40 6, 48 10, 48 18 L48 26 C48 30, 44 32, 32 32 C20 32, 16 30, 16 26 Z"/>
    <!-- 体 -->
    <path d="M18 30 C18 30, 18 50, 26 54 L38 54 C46 50, 46 30, 46 30 Z"/>
    <!-- 翼の輪郭ライン -->
    <path d="M20 34 C18 42, 22 50, 26 52 L26 36 Z" opacity="0.85"/>
    <!-- 止まり木（枝） -->
    <rect x="20" y="54" width="28" height="3"/>
    <path d="M44 55 L52 58 L50 55 Z"/>
  </g>
  <!-- 目 -->
  <circle cx="25" cy="18" r="3" fill="#FFFFFF"/>
  <circle cx="39" cy="18" r="3" fill="#FFFFFF"/>
  <circle cx="25" cy="18" r="1.3" fill="#000000"/>
  <circle cx="39" cy="18" r="1.3" fill="#000000"/>
  <!-- くちばし -->
  <path d="M30 22 L34 22 L32 26 Z" fill="#FFFFFF"/>
  <!-- 胸の白いV模様 -->
  <path d="M28 34 C30 40, 34 40, 36 34 L34 38 L32 36 L30 38 Z" fill="#FFFFFF" opacity="0.9"/>
</svg>
